<mxfile host="app.diagrams.net" modified="2024-05-10T07:07:39.443Z" agent="Mozilla/5.0 (Macintosh; Intel Mac OS X 10_15_7) AppleWebKit/537.36 (KHTML, like Gecko) Chrome/121.0.0.0 Safari/537.36" etag="kllSRZIVG7vjs3UIskRv" version="24.3.1" type="github">
  <diagram name="第 1 页" id="6Q7TpcPfKRQDtFotpPKH">
    <mxGraphModel dx="1050" dy="594" grid="1" gridSize="10" guides="1" tooltips="1" connect="1" arrows="1" fold="1" page="1" pageScale="1" pageWidth="827" pageHeight="1169" math="0" shadow="0">
      <root>
        <mxCell id="0" />
        <mxCell id="1" parent="0" />
        <mxCell id="jZl_tQtMfmz_h8SDZUK--1" value="" style="rounded=0;whiteSpace=wrap;html=1;" vertex="1" parent="1">
          <mxGeometry x="200" y="190" width="360" height="100" as="geometry" />
        </mxCell>
        <mxCell id="jZl_tQtMfmz_h8SDZUK--2" value="" style="rounded=0;whiteSpace=wrap;html=1;" vertex="1" parent="1">
          <mxGeometry x="250" y="230" width="80" height="50" as="geometry" />
        </mxCell>
        <mxCell id="jZl_tQtMfmz_h8SDZUK--3" value="lowcode 相关规范" style="text;html=1;align=center;verticalAlign=middle;whiteSpace=wrap;rounded=0;" vertex="1" parent="1">
          <mxGeometry x="260" y="240" width="60" height="30" as="geometry" />
        </mxCell>
        <mxCell id="jZl_tQtMfmz_h8SDZUK--4" value="布局规范" style="rounded=0;whiteSpace=wrap;html=1;" vertex="1" parent="1">
          <mxGeometry x="360" y="230" width="70" height="50" as="geometry" />
        </mxCell>
        <mxCell id="jZl_tQtMfmz_h8SDZUK--5" value="调起协议" style="rounded=0;whiteSpace=wrap;html=1;" vertex="1" parent="1">
          <mxGeometry x="454" y="230" width="70" height="50" as="geometry" />
        </mxCell>
        <mxCell id="jZl_tQtMfmz_h8SDZUK--6" value="" style="rounded=0;whiteSpace=wrap;html=1;" vertex="1" parent="1">
          <mxGeometry x="200" y="310" width="360" height="140" as="geometry" />
        </mxCell>
        <mxCell id="jZl_tQtMfmz_h8SDZUK--7" value="规范/标准" style="text;html=1;align=center;verticalAlign=middle;whiteSpace=wrap;rounded=0;" vertex="1" parent="1">
          <mxGeometry x="210" y="200" width="60" height="30" as="geometry" />
        </mxCell>
        <mxCell id="jZl_tQtMfmz_h8SDZUK--8" value="物料" style="text;html=1;align=center;verticalAlign=middle;whiteSpace=wrap;rounded=0;" vertex="1" parent="1">
          <mxGeometry x="210" y="320" width="60" height="30" as="geometry" />
        </mxCell>
        <mxCell id="jZl_tQtMfmz_h8SDZUK--9" value="" style="rounded=0;whiteSpace=wrap;html=1;" vertex="1" parent="1">
          <mxGeometry x="250" y="350" width="90" height="90" as="geometry" />
        </mxCell>
        <mxCell id="jZl_tQtMfmz_h8SDZUK--10" value="通用&lt;div&gt;组件库&lt;/div&gt;" style="rounded=0;whiteSpace=wrap;html=1;" vertex="1" parent="1">
          <mxGeometry x="370" y="350" width="70" height="40" as="geometry" />
        </mxCell>
        <mxCell id="jZl_tQtMfmz_h8SDZUK--11" value="静态资源" style="rounded=0;whiteSpace=wrap;html=1;" vertex="1" parent="1">
          <mxGeometry x="460" y="350" width="70" height="40" as="geometry" />
        </mxCell>
        <mxCell id="jZl_tQtMfmz_h8SDZUK--12" value="" style="rounded=0;whiteSpace=wrap;html=1;" vertex="1" parent="1">
          <mxGeometry x="200" y="470" width="360" height="70" as="geometry" />
        </mxCell>
        <mxCell id="jZl_tQtMfmz_h8SDZUK--13" value="物料" style="text;html=1;align=center;verticalAlign=middle;whiteSpace=wrap;rounded=0;" vertex="1" parent="1">
          <mxGeometry x="210" y="320" width="60" height="30" as="geometry" />
        </mxCell>
        <mxCell id="jZl_tQtMfmz_h8SDZUK--15" value="lowcode能力" style="text;html=1;align=center;verticalAlign=middle;whiteSpace=wrap;rounded=0;" vertex="1" parent="1">
          <mxGeometry x="210" y="470" width="80" height="30" as="geometry" />
        </mxCell>
        <mxCell id="jZl_tQtMfmz_h8SDZUK--16" value="LCDP" style="rounded=0;whiteSpace=wrap;html=1;" vertex="1" parent="1">
          <mxGeometry x="300" y="490" width="70" height="30" as="geometry" />
        </mxCell>
        <mxCell id="jZl_tQtMfmz_h8SDZUK--17" value="解析引擎" style="rounded=0;whiteSpace=wrap;html=1;" vertex="1" parent="1">
          <mxGeometry x="440" y="490" width="70" height="30" as="geometry" />
        </mxCell>
        <mxCell id="jZl_tQtMfmz_h8SDZUK--18" value="" style="rounded=0;whiteSpace=wrap;html=1;" vertex="1" parent="1">
          <mxGeometry x="200" y="570" width="360" height="70" as="geometry" />
        </mxCell>
        <mxCell id="jZl_tQtMfmz_h8SDZUK--19" value="平台通用能力" style="text;html=1;align=center;verticalAlign=middle;whiteSpace=wrap;rounded=0;" vertex="1" parent="1">
          <mxGeometry x="210" y="570" width="80" height="30" as="geometry" />
        </mxCell>
        <mxCell id="jZl_tQtMfmz_h8SDZUK--20" value="配置化" style="rounded=0;whiteSpace=wrap;html=1;" vertex="1" parent="1">
          <mxGeometry x="210" y="600" width="70" height="30" as="geometry" />
        </mxCell>
        <mxCell id="jZl_tQtMfmz_h8SDZUK--21" value="布局能力" style="rounded=0;whiteSpace=wrap;html=1;" vertex="1" parent="1">
          <mxGeometry x="300" y="600" width="70" height="30" as="geometry" />
        </mxCell>
        <mxCell id="jZl_tQtMfmz_h8SDZUK--22" value="UI-状态机" style="rounded=0;whiteSpace=wrap;html=1;" vertex="1" parent="1">
          <mxGeometry x="390" y="600" width="70" height="30" as="geometry" />
        </mxCell>
        <mxCell id="jZl_tQtMfmz_h8SDZUK--23" value="通用图片&lt;div&gt;推荐组件&lt;/div&gt;" style="rounded=0;whiteSpace=wrap;html=1;" vertex="1" parent="1">
          <mxGeometry x="260" y="390" width="70" height="40" as="geometry" />
        </mxCell>
        <mxCell id="jZl_tQtMfmz_h8SDZUK--25" value="" style="rounded=0;whiteSpace=wrap;html=1;" vertex="1" parent="1">
          <mxGeometry x="200" y="670" width="360" height="70" as="geometry" />
        </mxCell>
        <mxCell id="jZl_tQtMfmz_h8SDZUK--26" value="业务场景" style="text;html=1;align=center;verticalAlign=middle;whiteSpace=wrap;rounded=0;" vertex="1" parent="1">
          <mxGeometry x="210" y="670" width="80" height="30" as="geometry" />
        </mxCell>
        <mxCell id="jZl_tQtMfmz_h8SDZUK--27" value="" style="rounded=0;whiteSpace=wrap;html=1;" vertex="1" parent="1">
          <mxGeometry x="300" y="680" width="170" height="50" as="geometry" />
        </mxCell>
        <mxCell id="jZl_tQtMfmz_h8SDZUK--28" value="BPM&lt;div&gt;流程编排&lt;/div&gt;" style="rounded=0;whiteSpace=wrap;html=1;" vertex="1" parent="1">
          <mxGeometry x="390" y="690" width="70" height="30" as="geometry" />
        </mxCell>
        <mxCell id="jZl_tQtMfmz_h8SDZUK--29" value="地图编辑&lt;div&gt;组件库&lt;/div&gt;" style="text;html=1;align=center;verticalAlign=middle;whiteSpace=wrap;rounded=0;" vertex="1" parent="1">
          <mxGeometry x="255" y="355" width="60" height="30" as="geometry" />
        </mxCell>
        <mxCell id="jZl_tQtMfmz_h8SDZUK--30" value="引导式作业" style="text;html=1;align=center;verticalAlign=middle;whiteSpace=wrap;rounded=0;" vertex="1" parent="1">
          <mxGeometry x="300" y="680" width="90" height="30" as="geometry" />
        </mxCell>
      </root>
    </mxGraphModel>
  </diagram>
</mxfile>
